<?xml version="1.0" encoding="utf-8"?>
<!-- Generator: Adobe Illustrator 24.3.0, SVG Export Plug-In . SVG Version: 6.00 Build 0)  -->
<svg version="1.1" id="Camada_1" xmlns="http://www.w3.org/2000/svg" xmlns:xlink="http://www.w3.org/1999/xlink" x="0px" y="0px"
	 viewBox="0 0 20 20" style="enable-background:new 0 0 20 20;" xml:space="preserve">
<style type="text/css">
	.st0{fill:#EF1C8F;}
</style>
<g>
	<path class="st0" d="M2.7,2.1C2,2.8,1.3,9.2,0.7,9.9C0,10.7,0,18.5,0,19.2c0,0.7,1.3,1.4,2,0C2.2,18.7,3.3,4.3,5.3,4.3
		c1.1,0,0.7,6.4,0.7,7.1c0,0.7-0.7,5-0.7,5.7c0,0.6,1.8,1.7,2.7,2.1l2.6-1.7V8.8L8,0C6.4,0.5,3.9,0.9,2.7,2.1z"/>
	<path class="st0" d="M19.3,9.9c-0.7-0.7-1.3-7.1-2-7.8v0C16.1,0.9,13.6,0.5,12,0l-1.3,5.7v12.1l1.3,1.4c0.9-0.5,2.7-1.6,2.7-2.1
		c0-0.7-0.7-5-0.7-5.7c0-0.7-0.4-7.1,0.7-7.1c2,0,3.1,14.5,3.3,14.9c0.7,1.4,2,0.7,2,0C20,18.5,20,10.7,19.3,9.9z"/>
</g>
</svg>
