<?xml version="1.0" encoding="utf-8"?>
<!-- Generator: Adobe Illustrator 24.3.0, SVG Export Plug-In . SVG Version: 6.00 Build 0)  -->
<svg version="1.1" id="Camada_1" xmlns="http://www.w3.org/2000/svg" xmlns:xlink="http://www.w3.org/1999/xlink" x="0px" y="0px"
	 viewBox="0 0 20 20" style="enable-background:new 0 0 20 20;" xml:space="preserve">
<style type="text/css">
	.st0{fill:#EF1C8F;}
</style>
<g>
	<path class="st0" d="M7.4,7.5c-0.2,0-0.4,0-0.6-0.1C6.4,7.2,6.1,6.8,6,6.4L5.5,2.8c-0.3,0-0.6,0-1,0.1c-0.7,0.4-1.3,1-1.4,1.8
		L0,19.2c0,0.1,0,0.2,0.1,0.3c0.1,0.1,0.2,0.2,0.3,0.2l1.9,0.4c0.2,0,0.4-0.1,0.5-0.3L5.2,10v9c0,0.1,0,0.2,0.1,0.3
		c0.1,0.1,0.2,0.1,0.3,0.1h3.9v-13L8.2,7.3C8,7.4,7.7,7.5,7.4,7.5z"/>
	<path class="st0" d="M16.9,4.7c-0.2-0.8-0.7-1.5-1.5-1.7c-0.3-0.1-0.6-0.2-1-0.1l-0.5,3.5c-0.1,0.5-0.4,0.9-0.8,1
		c-0.2,0.1-0.4,0.1-0.6,0.1c-0.3,0-0.5-0.1-0.8-0.2l-1.3-0.9v13h3.9c0.1,0,0.2,0,0.3-0.1c0.1-0.1,0.1-0.2,0.1-0.3v-9l2.4,9.7
		c0.1,0.2,0.3,0.4,0.5,0.3l1.9-0.4c0.1,0,0.2-0.1,0.3-0.2c0.2,0,0.2-0.1,0.2-0.2L16.9,4.7z"/>
	<path class="st0" d="M12.6,6.4L12.6,6.4c0.2,0,0.3-0.2,0.3-0.3l0.6-3.8c0.1-0.9-0.4-1.9-1.4-2.1H12C11.4,0.1,10.7,0,10,0
		C9.3,0,8.6,0.1,8,0.2c0,0-0.1,0-0.2,0C6.9,0.5,6.4,1.4,6.5,2.3l0.6,3.8c0,0.1,0.1,0.2,0.2,0.3h0.1c0.1,0,0.1,0,0.2-0.1L10,4.8
		l2.4,1.6C12.4,6.4,12.5,6.4,12.6,6.4z M11.7,2.6l-1.7,2l-1.7-2c-0.1-0.1-0.1-0.1,0-0.2c0-0.1,0.1-0.1,0.2-0.1
		c0.4,0,0.8-0.1,1.3-0.1h0.3c0.1,0,0.2,0,0.3,0c0.5,0,0.9,0,1.3,0.1c0.1,0,0.1,0.1,0.2,0.1C11.8,2.5,11.7,2.5,11.7,2.6z"/>
</g>
</svg>
