<?xml version="1.0" encoding="utf-8"?>
<!-- Generator: Adobe Illustrator 24.3.0, SVG Export Plug-In . SVG Version: 6.00 Build 0)  -->
<svg version="1.1" id="Camada_1" xmlns="http://www.w3.org/2000/svg" xmlns:xlink="http://www.w3.org/1999/xlink" x="0px" y="0px"
	 viewBox="0 0 20 20" style="enable-background:new 0 0 20 20;" xml:space="preserve">
<style type="text/css">
	.st0{fill:#EF1C8F;}
</style>
<path class="st0" d="M18.7,2.3c0-0.1-0.1-0.2-0.2-0.2l-3.3-1.5C14.5,0.3,13.8,0.1,13,0c-0.2,0-0.4,0.1-0.5,0.3c-0.3,1.1-1.3,2-2.6,2
	c-1.3,0-2.3-0.9-2.6-2C7.4,0.1,7.2,0,7,0C6.2,0.1,5.5,0.3,4.8,0.6L1.5,2.1c-0.1,0-0.2,0.1-0.2,0.2c0,0.1,0,0.2,0,0.3l1.4,2.8
	C2.8,5.6,3,5.6,3.2,5.6l1.6-0.5c0,0,0,8.3,0,10.7c0,0.2,0.1,0.4,0.3,0.4C6,16.3,7,16.9,7.6,17.6c0.7,0.7,1.3,1.6,1.5,2.3
	c0,0.1,0.1,0.2,0.2,0.2h1.4c0.1,0,0.2-0.1,0.2-0.2c0.2-0.7,0.8-1.6,1.5-2.3c0.6-0.6,1.6-1.3,2.5-1.4c0.2,0,0.4-0.2,0.4-0.4
	c0-2.4,0-10.7,0-10.7l1.6,0.5c0.2,0.1,0.4,0,0.5-0.2l1.5-2.8l0,0C18.8,2.5,18.8,2.4,18.7,2.3z"/>
</svg>
