<?xml version="1.0" encoding="utf-8"?>
<!-- Generator: Adobe Illustrator 24.3.0, SVG Export Plug-In . SVG Version: 6.00 Build 0)  -->
<svg version="1.1" id="Camada_1" xmlns="http://www.w3.org/2000/svg" xmlns:xlink="http://www.w3.org/1999/xlink" x="0px" y="0px"
	 viewBox="0 0 20 20" style="enable-background:new 0 0 20 20;" xml:space="preserve">
<style type="text/css">
	.st0{fill:#EF1C8F;}
</style>
<g>
	<path class="st0" d="M6.7,2.2H5.5c0,0.3,0,0.7,0,1l0,0.4C6,3.3,6.5,2.8,6.7,2.2z"/>
	<path class="st0" d="M14.3,0.6l-0.1-0.2C14.2,0.2,14,0,13.7,0H6.3C6,0,5.8,0.2,5.8,0.4L5.7,0.6c0,0.2-0.1,0.4-0.1,0.5h8.7
		C14.3,1,14.3,0.8,14.3,0.6z"/>
	<path class="st0" d="M12.3,2.2h-1.8V4c0,0.3-0.2,0.5-0.5,0.5S9.5,4.3,9.5,4V2.2H7.7C7.5,3.3,6.6,4.3,5.5,4.6l0.1,14.9
		c0,0.3,0.2,0.5,0.5,0.5h2.6c0.3,0,0.5-0.2,0.5-0.5L9.9,5.8c0-0.1,0.1-0.1,0.1-0.1c0.1,0,0.1,0.1,0.1,0.1l0.8,13.7
		c0,0.3,0.2,0.5,0.5,0.5h2.6c0.3,0,0.5-0.2,0.5-0.5l0.1-14.9C13.4,4.3,12.5,3.3,12.3,2.2z"/>
	<path class="st0" d="M14.5,2.2h-1.2c0.2,0.6,0.6,1.1,1.2,1.4l0-0.4C14.5,2.8,14.5,2.5,14.5,2.2z"/>
</g>
</svg>
