<?xml version="1.0" encoding="utf-8"?>
<!-- Generator: Adobe Illustrator 24.3.0, SVG Export Plug-In . SVG Version: 6.00 Build 0)  -->
<svg version="1.1" id="Camada_1" xmlns="http://www.w3.org/2000/svg" xmlns:xlink="http://www.w3.org/1999/xlink" x="0px" y="0px"
	 viewBox="0 0 20 20" style="enable-background:new 0 0 20 20;" xml:space="preserve">
<style type="text/css">
	.st0{fill:#EF1C8F;}
</style>
<desc>Created using Figma</desc>
<path class="st0" d="M19.9,6.5l-0.5-0.7c0-0.8-0.3-1.7-0.8-2.4C18.2,2.8,17.6,2.3,17,2c-0.4-0.2-0.9-0.4-1.6-0.5c0,0-0.3,0-0.8,0
	v0.3c0,1.4-0.7,2.6-1.8,3.4c-0.5,0.4-1.2,0.4-1.8,0.1c-0.4-0.2-0.7-0.6-0.9-1.1V4.1c1.7,0,3-1.4,3-2.6h-1.3C11.8,2,11,2.9,10,2.9
	c-1,0-1.8-0.8-1.8-1.4H6.9c0,1.2,1.3,2.6,3,2.6v0.1C9.8,4.6,9.5,5,9,5.3C8.4,5.6,7.8,5.5,7.2,5.2c-1.1-0.8-1.8-2-1.8-3.4V1.5
	c-0.5,0-0.8,0-0.8,0C4,1.5,3.5,1.7,3.1,2C2.5,2.3,1.9,2.8,1.4,3.4C0.8,4.2,0.6,5,0.6,5.8L0.1,6.5C0,6.6,0,6.7,0,6.9
	C0,7,0.1,7.2,0.2,7.2l3.1,2.2C3.5,9.6,3.9,9.5,4,9.3l0.5-0.6c0.8,1.9,0.2,6.1-0.5,8.6c-0.1,0.3,0,0.6,0.2,0.8s0.4,0.4,0.7,0.4h10
	c0.3,0,0.6-0.1,0.7-0.4c0.2-0.2,0.2-0.5,0.2-0.8c-0.7-2.6-1.3-6.7-0.5-8.6l0.5,0.6c0.2,0.2,0.5,0.3,0.7,0.1l3.1-2.2
	c0.1-0.1,0.2-0.2,0.2-0.3C20,6.7,20,6.6,19.9,6.5z M10.1,12.5c-0.3,0-0.5-0.2-0.5-0.5s0.2-0.5,0.5-0.5s0.5,0.2,0.5,0.5
	C10.6,12.2,10.4,12.5,10.1,12.5z M10.1,10c-0.3,0-0.5-0.2-0.5-0.5C9.6,9.2,9.8,9,10.1,9s0.5,0.2,0.5,0.5C10.6,9.8,10.4,10,10.1,10z
	 M10.1,7.4c-0.3,0-0.5-0.2-0.5-0.5c0-0.3,0.2-0.5,0.5-0.5s0.5,0.2,0.5,0.5C10.6,7.2,10.4,7.4,10.1,7.4z"/>
</svg>
