<?xml version="1.0" encoding="utf-8"?>
<!-- Generator: Adobe Illustrator 24.3.0, SVG Export Plug-In . SVG Version: 6.00 Build 0)  -->
<svg version="1.1" id="Camada_1" xmlns="http://www.w3.org/2000/svg" xmlns:xlink="http://www.w3.org/1999/xlink" x="0px" y="0px"
	 viewBox="0 0 20 20" style="enable-background:new 0 0 20 20;" xml:space="preserve">
<style type="text/css">
	.st0{fill:#EF1C8F;}
</style>
<desc>Created using Figma</desc>
<g>
	<path class="st0" d="M9.4,3.8c0-0.2-0.1-0.6-0.3-0.7l-2-2.9C7,0.1,6.9,0,6.7,0C6.6,0,6.5,0,6.5,0L4.8,0.8C4.6,0.9,4.4,1.2,4.4,1.4
		L3.7,7.2c0,0.2-0.1,0.5-0.1,0.8l-0.4,4.4c0,0.1,0,0.3,0.1,0.4c0.1,0.1,0.2,0.2,0.3,0.2l0.7,0c0.3,0,0.5-0.2,0.5-0.4L5.6,8
		c0-0.2,0.1-0.5,0.1-0.8L6,4.3l0.6,3.1c0,0.2,0,0.5,0,0.5c0,0.1,0,0.2,0,0.2C6.7,8.3,6.8,8.4,7,8.4h0.7c0.1,0,0.1,0,0.2,0.1
		c0,0,0,0.1,0,0.2L7,13.1c0,0.2-0.2,0.3-0.3,0.3h-1c-0.3,0-0.5,0.2-0.5,0.5l-0.4,5.6c0,0.1,0,0.3,0.1,0.3C4.9,19.9,5,20,5.1,20H8
		c0.3,0,0.5-0.2,0.5-0.5l1.2-9.8c0-0.2,0-0.6,0-0.8L9.4,3.8z"/>
	<path class="st0" d="M5.7,12.8H6c0.2,0,0.5-0.2,0.5-0.5l0.6-2.9c0-0.1,0-0.3-0.1-0.4C7,9,6.9,8.9,6.7,8.9H6.7
		c-0.2,0-0.5,0.2-0.6,0.4l-0.6,1.6c-0.1,0.2-0.2,0.5-0.2,0.8l0,0.6c0,0.1,0,0.3,0.1,0.3C5.5,12.8,5.6,12.8,5.7,12.8z"/>
	<path class="st0" d="M16.4,8c0-0.2-0.1-0.5-0.1-0.8l-0.7-5.8c0-0.2-0.2-0.5-0.4-0.6L13.5,0c-0.1,0-0.1,0-0.2,0
		c-0.2,0-0.4,0.1-0.5,0.2l-2,2.9c-0.1,0.2-0.2,0.5-0.3,0.7l-0.4,5.1c0,0.2,0,0.6,0,0.8l1.2,9.8c0,0.3,0.3,0.5,0.5,0.5h2.9
		c0.1,0,0.2-0.1,0.3-0.1c0.1-0.1,0.1-0.2,0.1-0.3l-0.4-5.6c0-0.3-0.2-0.5-0.5-0.5h-1c-0.2,0-0.3-0.1-0.3-0.3l-0.9-4.5
		c0-0.1,0-0.1,0-0.2c0,0,0.1-0.1,0.2-0.1H13c0.2,0,0.3-0.1,0.3-0.2c0-0.1,0.1-0.1,0-0.2c0-0.1,0-0.3,0-0.5L14,4.3l0.3,2.9
		c0,0.2,0.1,0.5,0.1,0.8l0.7,4.5c0,0.3,0.3,0.5,0.5,0.4l0.7,0c0.1,0,0.2-0.1,0.3-0.2c0.1-0.1,0.1-0.2,0.1-0.4L16.4,8z"/>
	<path class="st0" d="M13.9,9.4c-0.1-0.2-0.3-0.4-0.6-0.4h-0.1c-0.1,0-0.2,0.1-0.3,0.1c-0.1,0.1-0.1,0.2-0.1,0.4l0.6,2.9
		c0.1,0.3,0.3,0.5,0.5,0.5h0.3c0.1,0,0.2-0.1,0.3-0.1c0.1-0.1,0.1-0.2,0.1-0.3l0-0.6c0-0.2-0.1-0.6-0.2-0.8L13.9,9.4z"/>
</g>
</svg>
