<?xml version="1.0" encoding="utf-8"?>
<!-- Generator: Adobe Illustrator 24.3.0, SVG Export Plug-In . SVG Version: 6.00 Build 0)  -->
<svg version="1.1" id="Camada_1" xmlns="http://www.w3.org/2000/svg" xmlns:xlink="http://www.w3.org/1999/xlink" x="0px" y="0px"
	 viewBox="0 0 20 20" style="enable-background:new 0 0 20 20;" xml:space="preserve">
<style type="text/css">
	.st0{fill:#EF1C8F;}
</style>
<g>
	<path class="st0" d="M10.8,0H9.6C8.2,0,8,0.2,8,0.8c0,0.9,1.2,3.5,2.1,5.4c1-1.9,2.2-4.6,2.2-5.4C12.4,0.2,12.2,0,10.8,0z"/>
	<path class="st0" d="M6.7,3.2L7,2.4c0-0.1,0.1-0.1,0.1-0.2H6.1C5.7,2.2,5.5,2,5.4,1.8C5,2.2,4.7,2.7,4.6,3.2l-2.1,8.3
		c-0.1,0.4,0,0.7,0.1,0.9c0.2,0.2,0.5,0.4,0.9,0.4h1.4l0.8-5.6c0-0.3,0.3-0.5,0.6-0.5c0.3,0,0.5,0.3,0.5,0.6L5.1,19.2
		c0,0.6,0.5,0.8,1,0.8h3.5V7.7L7.1,4.9C6.7,4.5,6.5,3.7,6.7,3.2z"/>
	<path class="st0" d="M17.5,11.5l-1.8-8.4c-0.1-0.6-0.5-1.2-1-1.7c0.1,0.4-0.2,0.7-0.7,0.7h-0.6c0,0.1,0.1,0.1,0.1,0.2l0.3,0.8
		c0.2,0.5,0,1.3-0.4,1.7l-2.7,2.8V20h3.2c0.5,0,1-0.3,1-0.8L13.5,7.3c0-0.3,0.2-0.6,0.5-0.6c0.3,0,0.6,0.2,0.6,0.5l0.6,5.6h1.2
		c0.4,0,0.7-0.1,0.9-0.4C17.5,12.2,17.5,11.8,17.5,11.5z"/>
</g>
</svg>
