<?xml version="1.0" encoding="utf-8"?>
<!-- Generator: Adobe Illustrator 24.3.0, SVG Export Plug-In . SVG Version: 6.00 Build 0)  -->
<svg version="1.1" id="Camada_1" xmlns="http://www.w3.org/2000/svg" xmlns:xlink="http://www.w3.org/1999/xlink" x="0px" y="0px"
	 viewBox="0 0 20 20" style="enable-background:new 0 0 20 20;" xml:space="preserve">
<style type="text/css">
	.st0{fill:#EF1C8F;}
</style>
<desc>Created using Figma</desc>
<g>
	<path class="st0" d="M4.9,19.4c0,0.2,0.2,0.4,0.4,0.4h1.9l-2.2-3.2V19.4z"/>
	<path class="st0" d="M14.8,11H5.2c-0.2,0-0.4,0.2-0.4,0.4v0.8h10.2v-0.8C15.1,11.1,15,11,14.8,11z"/>
	<path class="st0" d="M11.1,13.3c0.1,0.2,0.1,0.4-0.1,0.5c-0.2,0.1-0.4,0.1-0.5-0.1L10,13.1l-0.5,0.7C9.4,13.9,9.1,14,9,13.8
		c-0.2-0.1-0.2-0.3-0.1-0.5l0.4-0.5H4.9v2.5L8,19.7h0.7c0.2,0,0.3-0.1,0.3-0.2l1-2.9l1,2.9c0,0.1,0.2,0.2,0.3,0.2H12l3.1-4.4v-2.5
		h-4.4L11.1,13.3z"/>
	<path class="st0" d="M14.7,19.7c0.2,0,0.4-0.2,0.4-0.4v-2.8l-2.2,3.2H14.7z"/>
	<path class="st0" d="M5.8,7.9h8.5c0.2,0,0.4-0.2,0.4-0.4l0.4-3c0-0.2-0.1-0.4-0.3-0.4c-1.1-0.4-1.6-2-1.2-3.6
		C13.7,0.3,13.5,0,13.3,0h-1.1c-0.2,0-0.4,0.2-0.4,0.4c0,0.9-0.8,1.7-1.8,1.7c-1,0-1.8-0.8-1.8-1.7C8.2,0.2,8.1,0,7.8,0H6.7
		C6.5,0,6.3,0.3,6.3,0.5c0.5,1.6-0.1,3.2-1.2,3.6C5,4.2,4.9,4.3,4.9,4.5l0.5,3C5.4,7.8,5.6,7.9,5.8,7.9z"/>
	<path class="st0" d="M14.3,8.7H5.7c-0.2,0-0.4,0.2-0.4,0.4c0,0.2,0.2,0.4,0.4,0.4h8.6c0.2,0,0.4-0.2,0.4-0.4
		C14.7,8.9,14.5,8.7,14.3,8.7z"/>
</g>
</svg>
