<?xml version="1.0" encoding="utf-8"?>
<!-- Generator: Adobe Illustrator 24.3.0, SVG Export Plug-In . SVG Version: 6.00 Build 0)  -->
<svg version="1.1" id="Camada_1" xmlns="http://www.w3.org/2000/svg" xmlns:xlink="http://www.w3.org/1999/xlink" x="0px" y="0px"
	 viewBox="0 0 20 20" style="enable-background:new 0 0 20 20;" xml:space="preserve">
<style type="text/css">
	.st0{fill:#EF1C8F;}
</style>
<desc>Created using Figma</desc>
<path class="st0" d="M18,9.9c-0.7-1.6-2.3-8.5-2.3-8.6c0-0.1-0.1-0.2-0.2-0.2l-1.7-1c0,0,0,0,0,0c0,0,0,0,0,0c0,0-0.1,0-0.1,0
	c0,0,0,0,0,0c0,0,0,0,0,0c0,0-0.1,0-0.1,0c0,0,0,0,0,0c0,0,0,0,0,0c0,0,0,0,0,0c0,0,0,0,0,0c0,0-0.1,0.1-0.1,0.1c0,0,0,0,0,0
	c0,0,0,0.1,0,0.1c0,0,0,0,0,0C13.3,0.4,13,3,10,3C7,3,6.7,0.4,6.7,0.3c0,0,0,0,0,0c0,0,0-0.1,0-0.1c0,0,0,0,0,0c0,0,0-0.1-0.1-0.1
	c0,0,0,0,0,0c0,0,0,0,0,0c0,0,0,0,0,0c0,0,0,0,0,0c0,0-0.1,0-0.1,0c0,0,0,0,0,0c0,0,0,0,0,0c0,0-0.1,0-0.1,0c0,0,0,0,0,0
	c0,0,0,0,0,0L4.5,1c-0.1,0-0.1,0.1-0.2,0.2c0,0.1-1.7,7-2.3,8.6c-0.7,1.8-0.2,3.3,0.4,4.3c0.6,1,1.3,2.6,1.3,5.5
	C3.7,19.9,3.8,20,4,20h12c0.2,0,0.3-0.1,0.3-0.3c0-2.9,0.7-4.5,1.3-5.5C18.2,13.2,18.7,11.7,18,9.9z M8,8.6C7.1,7.7,6.7,6.5,6.7,5
	V4.6c1.1,1.2,1.7,2.7,1.8,4.3C8.3,8.8,8.2,8.7,8,8.6z M13.3,5c0,1.5-0.5,2.7-1.4,3.6c-0.1,0.1-0.3,0.2-0.4,0.3
	c0.1-1.6,0.7-3.1,1.8-4.3V5z M13.3,3.6c-1.6,1.5-2.4,3.4-2.4,5.6c0,0,0,0,0,0c-0.1,0-0.2,0.1-0.3,0.1c0,0-0.1,0-0.2,0
	c-0.1,0-0.2,0-0.2,0c-0.1,0-0.2,0-0.2,0c-0.1,0-0.2,0-0.2,0c0,0-0.1,0-0.1,0c-0.1,0-0.2,0-0.3-0.1c0,0,0,0,0,0c0-2.2-0.8-4-2.4-5.6
	V2C7.2,2.9,8.2,3.7,10,3.7s2.8-0.8,3.3-1.6V3.6z"/>
</svg>
