<?xml version="1.0" encoding="utf-8"?>
<!-- Generator: Adobe Illustrator 24.3.0, SVG Export Plug-In . SVG Version: 6.00 Build 0)  -->
<svg version="1.1" id="Camada_1" xmlns="http://www.w3.org/2000/svg" xmlns:xlink="http://www.w3.org/1999/xlink" x="0px" y="0px"
	 viewBox="0 0 20 20" style="enable-background:new 0 0 20 20;" xml:space="preserve">
<style type="text/css">
	.st0{fill:#EF1C8F;}
</style>
<g>
	<path class="st0" d="M14.5,3.6L14.5,3.6l0-3c0-0.4-0.3-0.7-0.6-0.7c-0.4,0-0.6,0.3-0.6,0.7V3H6.8V0.7C6.8,0.3,6.5,0,6.1,0
		C5.8,0,5.5,0.3,5.5,0.7v3L4.3,8.3h11.3L14.5,3.6z M11.9,7H8.1C7.7,7,7.4,6.7,7.4,6.3c0-0.4,0.3-0.7,0.6-0.7h3.9
		c0.4,0,0.6,0.3,0.6,0.7C12.6,6.7,12.3,7,11.9,7z"/>
	<path class="st0" d="M15.8,12.5V9.6h-2.3C14,10.8,14.8,11.8,15.8,12.5z"/>
	<path class="st0" d="M6.5,9.6H4.2v2.9C5.2,11.8,6,10.8,6.5,9.6z"/>
	<path class="st0" d="M12.1,9.6H7.9c-0.7,2-2,3.5-3.7,4.5v5.3c0,0.4,0.3,0.7,0.6,0.7h3.9c0.3,0,0.6-0.2,0.6-0.5l0.7-2.7l0.7,2.7
		c0.1,0.3,0.3,0.5,0.6,0.5h3.9c0.4,0,0.6-0.3,0.6-0.7V14C14.1,13.1,12.8,11.5,12.1,9.6z"/>
</g>
</svg>
