<?xml version="1.0" encoding="utf-8"?>
<!-- Generator: Adobe Illustrator 24.3.0, SVG Export Plug-In . SVG Version: 6.00 Build 0)  -->
<svg version="1.1" id="Layer_1" xmlns="http://www.w3.org/2000/svg" xmlns:xlink="http://www.w3.org/1999/xlink" x="0px" y="0px"
	 viewBox="0 0 20 20" style="enable-background:new 0 0 20 20;" xml:space="preserve">
<style type="text/css">
	.st0{fill:#EF1C8F;}
</style>
<path class="st0" d="M19.9,11.9c-1.3-2.3-0.2-0.3-4.8-8.3c-0.7-1.3-2-1.1-2.8-1.1c-0.2,0-0.3,0.1-0.5,0.2l-1.7,1.8
	c-0.1,0.1-0.2,0.1-0.3,0L8.2,2.7C8.1,2.5,7.9,2.5,7.7,2.5c-0.8,0-2.1-0.2-2.8,1.1c-4.6,8-3.6,6.2-4.8,8.3c-0.2,0.3-0.1,0.7,0.2,0.8
	L3,14.3c0.3,0.2,0.7,0.1,0.8-0.2c1.4-2.3,0.7-1.3,1.4-2.4V15c0,0.3,0.2,0.6,0.5,0.6v1.3c0,0.3,0.3,0.6,0.6,0.6h7.1
	c0.3,0,0.6-0.3,0.6-0.6v-1.3c0.3,0,0.5-0.3,0.5-0.6v-3.3c0.8,1.4,0.3,0.5,1.4,2.4c0.2,0.3,0.6,0.4,0.8,0.2l2.7-1.6
	C20,12.6,20.1,12.2,19.9,11.9z M3.1,13L1.5,12l0.3-0.5l1.6,0.9L3.1,13z M12.9,16.3H7.1v-0.7h5.9V16.3z M16.9,13l-0.3-0.5l1.6-0.9
	l0.3,0.5L16.9,13z"/>
</svg>
