<?xml version="1.0" encoding="utf-8"?>
<!-- Generator: Adobe Illustrator 24.3.0, SVG Export Plug-In . SVG Version: 6.00 Build 0)  -->
<svg version="1.1" id="Camada_1" xmlns="http://www.w3.org/2000/svg" xmlns:xlink="http://www.w3.org/1999/xlink" x="0px" y="0px"
	 viewBox="0 0 20 20" style="enable-background:new 0 0 20 20;" xml:space="preserve">
<style type="text/css">
	.st0{fill:#EF1C8F;}
</style>
<g>
	<path class="st0" d="M5.1,4.7l-4.9,7c-0.1,0.2-0.2,0.4,0,0.7c0,0.1,1.1,2.2,5.1,3.3l2-11H5.1z"/>
	<path class="st0" d="M14.8,2.6c0-0.4-0.3-0.6-0.6-0.6H5.8C5.5,2,5.2,2.3,5.2,2.6v1.2h9.6V2.6z"/>
	<path class="st0" d="M11.9,4.7H8.1L5.8,16.8C6.5,17.3,7.8,18,10,18c2.2,0,3.5-0.7,4.2-1.2L11.9,4.7L11.9,4.7z"/>
	<path class="st0" d="M19.9,11.7L19.9,11.7l-4.9-7h-2.1l2,11c4-1.2,5-3.2,5.1-3.3C20,12.2,20,11.9,19.9,11.7z"/>
</g>
</svg>
