<?xml version="1.0" encoding="utf-8"?>
<!-- Generator: Adobe Illustrator 24.3.0, SVG Export Plug-In . SVG Version: 6.00 Build 0)  -->
<svg version="1.1" id="Camada_1" xmlns="http://www.w3.org/2000/svg" xmlns:xlink="http://www.w3.org/1999/xlink" x="0px" y="0px"
	 viewBox="0 0 20 20" style="enable-background:new 0 0 20 20;" xml:space="preserve">
<style type="text/css">
	.st0{fill:#EF1C8F;}
</style>
<g>
	<path class="st0" d="M0,18c0,0.4,0.3,0.7,0.7,0.7h3.7L0,12.4V18z"/>
	<path class="st0" d="M19.3,1.3H0.7C0.3,1.3,0,1.6,0,2v1.6h20V2C20,1.6,19.7,1.3,19.3,1.3z"/>
	<path class="st0" d="M12.1,6c0.2,0.3,0.2,0.8-0.1,1c-0.3,0.2-0.7,0.2-1-0.1l-1-1.4L9,6.8C8.7,7.2,8.3,7.2,8,7
		C7.7,6.7,7.6,6.3,7.9,6l0.7-1H0v5l6.1,8.7h1.3c0.3,0,0.6-0.2,0.7-0.5l1.9-5.8l1.9,5.8c0.1,0.3,0.4,0.5,0.7,0.5h1.3L20,10V5h-8.6
		L12.1,6z"/>
	<path class="st0" d="M19.3,18.7c0.4,0,0.7-0.3,0.7-0.7v-5.6l-4.4,6.3H19.3z"/>
</g>
</svg>
