<?xml version="1.0" encoding="utf-8"?>
<!-- Generator: Adobe Illustrator 24.3.0, SVG Export Plug-In . SVG Version: 6.00 Build 0)  -->
<svg version="1.1" id="Camada_1" xmlns="http://www.w3.org/2000/svg" xmlns:xlink="http://www.w3.org/1999/xlink" x="0px" y="0px"
	 viewBox="0 0 20 20" style="enable-background:new 0 0 20 20;" xml:space="preserve">
<style type="text/css">
	.st0{fill:#EF1C8F;}
</style>
<desc>Created using Figma</desc>
<g>
	<path class="st0" d="M4.2,7.3L3.7,7.8L3.1,7.3C2.9,7,2.5,7,2.3,7.3c-0.2,0.2-0.2,0.6,0,0.8l1,1c0.1,0.1,0.3,0.2,0.4,0.2
		S4,9.1,4.1,9l1-1c0.2-0.2,0.2-0.6,0-0.8C4.8,7,4.5,7,4.2,7.3z"/>
	<path class="st0" d="M4.2,9.4L3.7,9.9L3.1,9.4c-0.2-0.2-0.6-0.2-0.8,0c-0.2,0.2-0.2,0.6,0,0.8l1,1c0.1,0.1,0.3,0.2,0.4,0.2
		s0.3-0.1,0.4-0.2l1-1c0.2-0.2,0.2-0.6,0-0.8C4.8,9.2,4.5,9.2,4.2,9.4z"/>
	<path class="st0" d="M4.2,11.5L3.7,12l-0.6-0.6c-0.2-0.2-0.6-0.2-0.8,0c-0.2,0.2-0.2,0.6,0,0.8l1,1c0.1,0.1,0.3,0.2,0.4,0.2
		s0.3-0.1,0.4-0.2l1-1c0.2-0.2,0.2-0.6,0-0.8C4.8,11.3,4.5,11.3,4.2,11.5z"/>
	<path class="st0" d="M4.2,13.6l-0.6,0.6l-0.6-0.6c-0.2-0.2-0.6-0.2-0.8,0c-0.2,0.2-0.2,0.6,0,0.8l1,1c0.1,0.1,0.3,0.2,0.4,0.2
		c0.2,0,0.3-0.1,0.4-0.2l1-1c0.2-0.2,0.2-0.6,0-0.8S4.5,13.4,4.2,13.6z"/>
	<path class="st0" d="M7.8,7.3L7.2,7.8L6.7,7.3C6.4,7,6.1,7,5.8,7.3c-0.2,0.2-0.2,0.6,0,0.8l1,1c0.1,0.1,0.3,0.2,0.4,0.2
		c0.1,0,0.3-0.1,0.4-0.2l1-1c0.2-0.2,0.2-0.6,0-0.8C8.4,7,8,7,7.8,7.3z"/>
	<path class="st0" d="M7.8,9.4L7.2,9.9L6.7,9.4c-0.2-0.2-0.6-0.2-0.8,0c-0.2,0.2-0.2,0.6,0,0.8l1,1c0.1,0.1,0.3,0.2,0.4,0.2
		s0.3-0.1,0.4-0.2l1-1c0.2-0.2,0.2-0.6,0-0.8C8.4,9.2,8,9.2,7.8,9.4z"/>
	<path class="st0" d="M7.8,11.5L7.2,12l-0.6-0.6c-0.2-0.2-0.6-0.2-0.8,0c-0.2,0.2-0.2,0.6,0,0.8l1,1c0.1,0.1,0.3,0.2,0.4,0.2
		s0.3-0.1,0.4-0.2l1-1c0.2-0.2,0.2-0.6,0-0.8C8.4,11.3,8,11.3,7.8,11.5z"/>
	<path class="st0" d="M7.8,13.6l-0.6,0.6l-0.6-0.6c-0.2-0.2-0.6-0.2-0.8,0c-0.2,0.2-0.2,0.6,0,0.8l1,1c0.1,0.1,0.3,0.2,0.4,0.2
		c0.2,0,0.3-0.1,0.4-0.2l1-1c0.2-0.2,0.2-0.6,0-0.8C8.4,13.4,8,13.4,7.8,13.6z"/>
	<path class="st0" d="M11.3,7.3l-0.6,0.6l-0.6-0.6C10,7,9.6,7,9.4,7.3c-0.2,0.2-0.2,0.6,0,0.8l1,1c0.1,0.1,0.3,0.2,0.4,0.2
		c0.1,0,0.3-0.1,0.4-0.2l1-1c0.2-0.2,0.2-0.6,0-0.8C11.9,7,11.6,7,11.3,7.3z"/>
	<path class="st0" d="M11.3,9.4l-0.6,0.6l-0.6-0.6c-0.2-0.2-0.6-0.2-0.8,0c-0.2,0.2-0.2,0.6,0,0.8l1,1c0.1,0.1,0.3,0.2,0.4,0.2
		c0.1,0,0.3-0.1,0.4-0.2l1-1c0.2-0.2,0.2-0.6,0-0.8C11.9,9.2,11.6,9.2,11.3,9.4z"/>
	<path class="st0" d="M11.3,11.5L10.8,12l-0.6-0.6c-0.2-0.2-0.6-0.2-0.8,0c-0.2,0.2-0.2,0.6,0,0.8l1,1c0.1,0.1,0.3,0.2,0.4,0.2
		c0.1,0,0.3-0.1,0.4-0.2l1-1c0.2-0.2,0.2-0.6,0-0.8C11.9,11.3,11.6,11.3,11.3,11.5z"/>
	<path class="st0" d="M11.3,13.6l-0.6,0.6l-0.6-0.6c-0.2-0.2-0.6-0.2-0.8,0c-0.2,0.2-0.2,0.6,0,0.8l1,1c0.1,0.1,0.3,0.2,0.4,0.2
		c0.2,0,0.3-0.1,0.4-0.2l1-1c0.2-0.2,0.2-0.6,0-0.8S11.6,13.4,11.3,13.6z"/>
	<path class="st0" d="M14.9,7.3l-0.6,0.6l-0.6-0.6C13.6,7,13.2,7,13,7.3c-0.2,0.2-0.2,0.6,0,0.8l1,1c0.1,0.1,0.3,0.2,0.4,0.2
		c0.1,0,0.3-0.1,0.4-0.2l1-1c0.2-0.2,0.2-0.6,0-0.8C15.5,7,15.1,7,14.9,7.3z"/>
	<path class="st0" d="M14.9,9.4l-0.6,0.6l-0.6-0.6c-0.2-0.2-0.6-0.2-0.8,0c-0.2,0.2-0.2,0.6,0,0.8l1,1c0.1,0.1,0.3,0.2,0.4,0.2
		s0.3-0.1,0.4-0.2l1-1c0.2-0.2,0.2-0.6,0-0.8C15.5,9.2,15.1,9.2,14.9,9.4z"/>
	<path class="st0" d="M14.9,11.5L14.3,12l-0.6-0.6c-0.2-0.2-0.6-0.2-0.8,0c-0.2,0.2-0.2,0.6,0,0.8l1,1c0.1,0.1,0.3,0.2,0.4,0.2
		s0.3-0.1,0.4-0.2l1-1c0.2-0.2,0.2-0.6,0-0.8C15.5,11.3,15.1,11.3,14.9,11.5z"/>
	<path class="st0" d="M14.9,13.6l-0.6,0.6l-0.6-0.6c-0.2-0.2-0.6-0.2-0.8,0c-0.2,0.2-0.2,0.6,0,0.8l1,1c0.1,0.1,0.3,0.2,0.4,0.2
		c0.2,0,0.3-0.1,0.4-0.2l1-1c0.2-0.2,0.2-0.6,0-0.8C15.5,13.4,15.1,13.4,14.9,13.6z"/>
	<path class="st0" d="M18.5,4.5c-0.6,0-1.2,0.4-1.4,0.9h-1.2c0-0.1-0.1-0.2-0.2-0.3c-0.2-0.2-0.6-0.2-0.8,0l-0.3,0.3H14l-0.3-0.3
		c-0.2-0.2-0.6-0.2-0.8,0c-0.1,0.1-0.1,0.2-0.2,0.3h-0.5c0-0.1-0.1-0.2-0.2-0.3c-0.2-0.2-0.6-0.2-0.8,0l-0.3,0.3h-0.6l-0.3-0.3
		c-0.2-0.2-0.6-0.2-0.8,0C9.3,5.2,9.3,5.3,9.3,5.4H8.7c0-0.1-0.1-0.2-0.2-0.3C8.4,4.9,8,4.9,7.8,5.1L7.5,5.4H6.9L6.7,5.1
		c-0.2-0.2-0.6-0.2-0.8,0C5.8,5.2,5.7,5.3,5.7,5.4H5.2c0-0.1-0.1-0.2-0.2-0.3c-0.2-0.2-0.6-0.2-0.8,0L4,5.4H3.4L3.1,5.1
		c-0.2-0.2-0.6-0.2-0.8,0C2.2,5.2,2.2,5.3,2.1,5.4H0.6C0.3,5.4,0,5.7,0,6c0,0.3,0.3,0.6,0.6,0.6h2.3l0.4,0.4C3.4,7,3.5,7.1,3.7,7.1
		S4,7,4.1,6.9l0.4-0.4h2l0.4,0.4C6.9,7,7.1,7.1,7.2,7.1c0.2,0,0.3-0.1,0.4-0.2L8,6.5h2l0.4,0.4c0.1,0.1,0.3,0.2,0.4,0.2
		c0.2,0,0.3-0.1,0.4-0.2l0.4-0.4h2l0.4,0.4C14,7,14.2,7.1,14.3,7.1c0.2,0,0.3-0.1,0.4-0.2l0.4-0.4h2c0.2,0.5,0.8,0.9,1.4,0.9
		C19.3,7.5,20,6.8,20,6C20,5.2,19.3,4.5,18.5,4.5z M18.5,6.3c-0.2,0-0.4-0.2-0.4-0.4c0-0.2,0.2-0.4,0.4-0.4c0.2,0,0.4,0.2,0.4,0.4
		S18.7,6.3,18.5,6.3z"/>
</g>
</svg>
