<?xml version="1.0" encoding="utf-8"?>
<!-- Generator: Adobe Illustrator 24.3.0, SVG Export Plug-In . SVG Version: 6.00 Build 0)  -->
<svg version="1.1" id="Camada_1" xmlns="http://www.w3.org/2000/svg" xmlns:xlink="http://www.w3.org/1999/xlink" x="0px" y="0px"
	 viewBox="0 0 20 20" style="enable-background:new 0 0 20 20;" xml:space="preserve">
<style type="text/css">
	.st0{fill:#EF1C8F;}
</style>
<g>
	<path id="a" class="st0" d="M20,5c0,0.1,0,0.2-0.1,0.4l-2.4,3.6c-0.1,0.1-0.2,0.2-0.4,0.2c-0.1,0-0.2,0-0.2,0l-1.9-0.4v8.5
		c0,0.3-0.2,0.4-0.5,0.4H5.1c-0.3,0-0.4-0.1-0.4-0.4V8.7L2.9,9.1c-0.2,0.1-0.4,0-0.5-0.2L0.1,5.4C0,5.2,0,5.1,0,5
		c0-0.1,0.1-0.2,0.3-0.3l4.8-2.3h2.3c0.3,0,0.4,0.1,0.4,0.4c0,0.4,0.2,0.8,0.7,1.1C9,4.2,9.5,4.4,10,4.4c0.5,0,1-0.2,1.5-0.5
		c0.5-0.3,0.7-0.7,0.7-1.1c0-0.3,0.1-0.4,0.4-0.4h2.3l4.8,2.3C19.9,4.7,20,4.8,20,5L20,5z"/>
</g>
</svg>
