<?xml version="1.0" encoding="utf-8"?>
<!-- Generator: Adobe Illustrator 24.3.0, SVG Export Plug-In . SVG Version: 6.00 Build 0)  -->
<svg version="1.1" id="Capa_1" xmlns="http://www.w3.org/2000/svg" xmlns:xlink="http://www.w3.org/1999/xlink" x="0px" y="0px"
	 viewBox="0 0 20 20" style="enable-background:new 0 0 20 20;" xml:space="preserve">
<path d="M16.6,3.4l-0.3-0.5c0-0.5-0.2-1.1-0.6-1.6c-0.4-0.6-1.3-1.2-2.2-1.3c0,0-0.3,0-0.8,0c-0.2,0-0.3,0.1-0.3,0.3
	c-0.2,1.1-1.2,1.9-2.3,1.9c-1.2,0-2.1-0.8-2.3-1.9C7.6,0.1,7.5,0,7.3,0C6.8,0,6.5,0,6.5,0C5.6,0.1,4.7,0.7,4.3,1.3
	C3.9,1.8,3.8,2.4,3.8,2.9L3.4,3.4C3.4,3.5,3.3,3.6,3.3,3.7c0,0.1,0.1,0.2,0.1,0.2l2.1,1.5c0.2,0.1,0.4,0.1,0.5-0.1l0.3-0.4
	c0.4,0.9,0.5,2,0.5,3C6,9.6,5.5,11.9,5.5,14.5c0,1,0.6,3.5,1.1,5.1C6.6,19.8,6.9,20,7.1,20h5.8c0.2,0,0.5-0.2,0.5-0.4
	c0.5-1.6,1.1-4.1,1.1-5.1c0-2.6-0.5-4.9-1.4-6.7c-0.1-1,0.1-2,0.5-3l0.3,0.4c0.1,0.2,0.3,0.2,0.5,0.1l2.1-1.5
	c0.1-0.1,0.1-0.1,0.1-0.2C16.7,3.6,16.6,3.5,16.6,3.4z"/>
</svg>
