<?xml version="1.0" encoding="utf-8"?>
<!-- Generator: Adobe Illustrator 24.3.0, SVG Export Plug-In . SVG Version: 6.00 Build 0)  -->
<svg version="1.1" id="Camada_1" xmlns="http://www.w3.org/2000/svg" xmlns:xlink="http://www.w3.org/1999/xlink" x="0px" y="0px"
	 viewBox="0 0 20 20" style="enable-background:new 0 0 20 20;" xml:space="preserve">
<style type="text/css">
	.st0{fill:#EF1C8F;}
</style>
<g>
	<path id="a" class="st0" d="M17.9,19.4c-0.1-0.2-0.4-1.1-0.8-2.1c-0.4-1.2-0.9-2.6-1.2-3.2c-0.2-0.5-0.9-1.8-1.6-3.2
		c-0.7-1.4-1.5-2.8-1.7-3.3c0,0-0.1-0.6,0.8-3.6C14,2.5,14.6,1,14.6,1l0.2-0.4L12.8,0l-0.3,2.4L10,3.6L7.6,2.4L7.2,0L5.3,0.6L5.5,1
		c0,0,0.6,1.5,1.1,3.1c1,3,0.8,3.5,0.8,3.6C7.2,8.1,6.4,9.6,5.7,11c-0.7,1.4-1.4,2.6-1.6,3.2c-0.2,0.6-0.7,1.9-1.2,3.1
		c-0.4,1-0.7,1.9-0.8,2.1L1.9,20h16.2L17.9,19.4z"/>
</g>
</svg>
